<svg xmlns="http://www.w3.org/2000/svg" xmlns:xlink="http://www.w3.org/1999/xlink" width="500" zoomAndPan="magnify" viewBox="0 0 375 374.999991" height="500" preserveAspectRatio="xMidYMid meet" version="1.0"><defs><clipPath id="c0a4ea479e"><path d="M 63.242188 107.664062 L 311.492188 107.664062 L 311.492188 267.414062 L 63.242188 267.414062 Z M 63.242188 107.664062 " clip-rule="nonzero"/></clipPath></defs><rect x="-37.5" width="450" fill="#ffffff" y="-37.499999" height="449.999989" fill-opacity="1"/><rect x="-37.5" width="450" fill="#ffffff" y="-37.499999" height="449.999989" fill-opacity="1"/><g clip-path="url(#c0a4ea479e)"><path fill="#003549" d="M 230.675781 107.671875 L 194.457031 107.671875 L 148.230469 266.011719 L 147.824219 267.386719 L 231.527344 267.386719 C 275.664062 267.386719 311.429688 231.476562 311.273438 187.238281 C 311.117188 143.105469 274.738281 107.671875 230.675781 107.671875 Z M 231.527344 266.011719 L 164.25 266.011719 L 209.394531 118.738281 C 211.039062 113.382812 216.707031 109.046875 222.039062 109.046875 L 224.273438 109.046875 L 224.273438 109.039062 L 231.519531 109.039062 C 258.449219 109.039062 280.082031 144.175781 280.082031 187.523438 C 280.082031 230.875 258.453125 266.011719 231.527344 266.011719 Z M 175.476562 107.671875 L 161.21875 107.664062 L 161.21875 109.046875 L 162.597656 109.046875 C 167.9375 109.046875 170.941406 113.375 169.304688 118.738281 L 140.042969 214.203125 L 110.773438 118.738281 C 109.128906 113.382812 112.140625 109.046875 117.480469 109.046875 L 118.863281 109.046875 L 118.863281 107.664062 L 63.289062 107.664062 L 63.289062 109.046875 L 65.523438 109.046875 C 70.863281 109.046875 76.527344 113.375 78.164062 118.738281 L 123.742188 267.386719 L 140.347656 267.386719 L 186.972656 107.671875 Z M 124.457031 265.042969 L 79.613281 118.738281 C 77.96875 113.382812 80.980469 109.046875 86.316406 109.046875 L 96.699219 109.046875 C 102.039062 109.046875 107.703125 113.375 109.339844 118.738281 L 139.324219 216.539062 Z M 124.457031 265.042969 " fill-opacity="1" fill-rule="nonzero"/></g></svg>