<svg xmlns="http://www.w3.org/2000/svg" xmlns:xlink="http://www.w3.org/1999/xlink" width="500" zoomAndPan="magnify" viewBox="0 0 375 374.999991" height="500" preserveAspectRatio="xMidYMid meet" version="1.0"><defs><clipPath id="7facec296d"><path d="M 0 67.03125 L 375 67.03125 L 375 307.78125 L 0 307.78125 Z M 0 67.03125 " clip-rule="nonzero"/></clipPath></defs><g clip-path="url(#7facec296d)"><path fill="#003549" d="M 252.921875 67.042969 L 198.210938 67.042969 L 128.386719 305.667969 L 127.773438 307.742188 L 254.210938 307.742188 C 320.878906 307.742188 374.902344 253.625 374.667969 186.957031 C 374.433594 120.441406 319.480469 67.042969 252.921875 67.042969 Z M 254.210938 305.667969 L 152.582031 305.667969 L 220.773438 83.722656 C 223.257812 75.652344 231.824219 69.113281 239.878906 69.113281 L 243.25 69.113281 L 243.25 69.105469 L 254.199219 69.105469 C 294.875 69.105469 327.554688 122.054688 327.554688 187.386719 C 327.554688 252.714844 294.882812 305.667969 254.210938 305.667969 Z M 169.539062 67.042969 L 148 67.03125 L 148 69.113281 L 150.085938 69.113281 C 158.152344 69.113281 162.691406 75.640625 160.21875 83.722656 L 116.015625 227.589844 L 71.804688 83.722656 C 69.320312 75.652344 73.871094 69.113281 81.933594 69.113281 L 84.019531 69.113281 L 84.019531 67.03125 L 0.0742188 67.03125 L 0.0742188 69.113281 L 3.449219 69.113281 C 11.515625 69.113281 20.070312 75.640625 22.542969 83.722656 L 91.390625 307.742188 L 116.476562 307.742188 L 186.90625 67.042969 Z M 92.472656 304.207031 L 24.730469 83.722656 C 22.246094 75.652344 26.796875 69.113281 34.863281 69.113281 L 50.542969 69.113281 C 58.609375 69.113281 67.164062 75.640625 69.636719 83.722656 L 114.933594 231.113281 Z M 92.472656 304.207031 " fill-opacity="1" fill-rule="nonzero"/></g></svg>